# xmcd
# 
# Track frame offsets:
#     150
#     15280
#     25852
#     35542
#     56652
#     71632
#     82042
#     91422
#     100722
#     116967
#     131900
#     145962
# 
# Disc length: 2097
# 
# Revision: 0
# Processed by: cddbd v1.5.2PL0 Copyright (c) Steve Scherf et al.
# Submitted via: fre:ac v1.0.17
# 
DISCID=a4082f0c
DTITLE=Raymond Fairchild - Little Zane
DYEAR=0
DGENRE=Country
TTITLE0=Little Zane
TTITLE1=Feudin' Banjos
TTITLE2=Leavin' Out
TTITLE3=Orange Blossom Special
TTITLE4=Old Spinning Wheel
TTITLE5=Whoa Mule
TTITLE6=Yakety Sax
TTITLE7=Beer Barrel Polka
TTITLE8=Blues Stay Away from Me
TTITLE9=Steel Guitar Rag
TTITLE10=The World is Waiting for the Sunrise
TTITLE11=Crossin' the Smokies
EXTD=
EXTT0=
EXTT1=
EXTT2=
EXTT3=
EXTT4=
EXTT5=
EXTT6=
EXTT7=
EXTT8=
EXTT9=
EXTT10=
EXTT11=
PLAYORDER=
